{
  "accessors": [
    {
      "bufferView": 2,
      "componentType": 5126,
      "count": 269,
      "max": [
        0.69063001871109009,
        1.5158200263977051,
        0
      ],
      "min": [
        -0.70683997869491577,
        -1.3464900255203247,
        -0.034690000116825104
      ],
      "type": "VEC3"
    },
    {
      "bufferView": 2,
      "byteOffset": 3228,
      "componentType": 5126,
      "count": 269,
      "max": [
        1,
        1,
        1
      ],
      "min": [
        -1,
        -1,
        -1
      ],
      "type": "VEC3"
    },
    {
      "bufferView": 3,
      "componentType": 5126,
      "count": 269,
      "max": [
        1,
        1,
        0.08753909170627594,
        -1
      ],
      "min": [
        -1,
        -0.36986586451530457,
        -0.087523087859153748,
        -1
      ],
      "type": "VEC4"
    },
    {
      "bufferView": 1,
      "componentType": 5126,
      "count": 269,
      "max": [
        0.97070997953414917,
        0.93515998125076294
      ],
      "min": [
        0.033130001276731491,
        0.19309000670909882
      ],
      "type": "VEC2"
    },
    {
      "bufferView": 0,
      "componentType": 5125,
      "count": 795,
      "max": [
        268
      ],
      "min": [
        0
      ],
      "type": "SCALAR"
    }
  ],
  "asset": {
    "extras": {
      "author": "Emulius (https://sketchfab.com/Emulius)",
      "license": "CC-BY-4.0 (http://creativecommons.org/licenses/by/4.0/)",
      "source": "https://sketchfab.com/3d-models/bicycle-card-blue-5dd3e139a9e14dfa8cfa7eda5af0bea9",
      "title": "Bicycle Card Blue"
    },
    "generator": "Sketchfab-5.11.0",
    "version": "2.0"
  },
  "bufferViews": [
    {
      "buffer": 0,
      "byteLength": 3180,
      "byteOffset": 0,
      "name": "floatBufferViews",
      "target": 34963
    },
    {
      "buffer": 0,
      "byteLength": 2152,
      "byteOffset": 3180,
      "byteStride": 8,
      "name": "floatBufferViews",
      "target": 34962
    },
    {
      "buffer": 0,
      "byteLength": 6456,
      "byteOffset": 5332,
      "byteStride": 12,
      "name": "floatBufferViews",
      "target": 34962
    },
    {
      "buffer": 0,
      "byteLength": 4304,
      "byteOffset": 11788,
      "byteStride": 16,
      "name": "floatBufferViews",
      "target": 34962
    }
  ],
  "buffers": [
    {
      "byteLength": 16092,
      "uri": "scene.bin"
    }
  ],
  "extensionsRequired": [
    "KHR_materials_pbrSpecularGlossiness"
  ],
  "extensionsUsed": [
    "KHR_materials_pbrSpecularGlossiness"
  ],
  "images": [
    {
      "uri": "textures/card_diffuse.png"
    }
  ],
  "materials": [
    {
      "doubleSided": true,
      "extensions": {
        "KHR_materials_pbrSpecularGlossiness": {
          "diffuseFactor": [
            1,
            1,
            1,
            1
          ],
          "diffuseTexture": {
            "index": 0,
            "texCoord": 0
          },
          "glossinessFactor": 0.48608993899999997,
          "specularFactor": [
            0,
            0,
            0
          ]
        }
      },
      "name": "card"
    }
  ],
  "meshes": [
    {
      "name": "Plane_0",
      "primitives": [
        {
          "attributes": {
            "NORMAL": 1,
            "POSITION": 0,
            "TANGENT": 2,
            "TEXCOORD_0": 3
          },
          "indices": 4,
          "material": 0,
          "mode": 4
        }
      ]
    }
  ],
  "nodes": [
    {
      "children": [
        1
      ],
      "name": "RootNode (gltf orientation matrix)",
      "rotation": [
        -0.70710678118654746,
        -0,
        -0,
        0.70710678118654757
      ]
    },
    {
      "children": [
        2
      ],
      "name": "RootNode (model correction matrix)"
    },
    {
      "children": [
        3,
        5,
        7
      ],
      "name": "Root"
    },
    {
      "children": [
        4
      ],
      "matrix": [
        -1.80511,
        -0,
        0,
        0,
        0,
        -1.2218499999999999,
        0,
        0,
        0,
        0,
        1,
        0,
        0,
        0,
        0,
        1
      ],
      "name": "Plane"
    },
    {
      "mesh": 0,
      "name": "Plane_0"
    },
    {
      "children": [
        6
      ],
      "matrix": [
        1,
        0,
        0,
        0,
        0,
        1,
        0,
        0,
        0,
        0,
        1,
        0,
        9.107269999999998,
        0,
        3.7101600000000001,
        1
      ],
      "name": "Sun"
    },
    {
      "name": "Sun"
    },
    {
      "children": [
        8
      ],
      "matrix": [
        1,
        0,
        0,
        0,
        0,
        -1,
        -0,
        0,
        0,
        0,
        -1,
        0,
        9.107269999999998,
        0,
        -5.5009299999999994,
        1
      ],
      "name": "Sun.001"
    },
    {
      "name": "Sun.001"
    }
  ],
  "samplers": [
    {
      "magFilter": 9729,
      "minFilter": 9987,
      "wrapS": 10497,
      "wrapT": 10497
    }
  ],
  "scene": 0,
  "scenes": [
    {
      "name": "OSG_Scene",
      "nodes": [
        0
      ]
    }
  ],
  "textures": [
    {
      "sampler": 0,
      "source": 0
    }
  ]
}

